<?xml version="1.0" encoding="UTF-8" standalone="no"?>
<svg
   width="2048"
   height="837"
   viewBox="0 0 2048 837"
   version="1.1"
   id="svg23"
   xmlns="http://www.w3.org/2000/svg"
   xmlns:svg="http://www.w3.org/2000/svg">
  <defs
     id="defs23" />
  <g
     id="logo">
    <g
       id="placenta-mark"
       transform="rotate(-8.1461012,505.27009,-42.967691)" />
    <g
       id="g4"
       transform="translate(-72.053705,-138.60241)">
      <path
         style="fill:#f45c5c;fill-opacity:1;stroke:#0e0000;stroke-width:17.7;stroke-dasharray:none;stroke-opacity:1"
         d="m 1628.5912,234.90992 c -3.3965,-3.56702 -7.9288,-5.88989 -12.6306,-7.3569 -4.7019,-1.46701 -9.6096,-2.13354 -14.488,-2.81259 -47.3807,-6.5952 -96.3748,-14.83269 -142.3729,-1.69492 -9.158,2.61567 -18.1251,6.08215 -26.2712,11.01695 -6.0473,3.6634 -11.7415,8.27068 -15.2542,14.40678 -3.6417,6.36147 -4.6708,13.86804 -5.0848,21.18644 -1.8556,32.80007 7.8722,66.62563 29.0972,91.70125 10.6125,12.53781 23.9671,22.7952 38.9728,29.47724 15.0058,6.68203 31.6543,9.74844 48.0317,8.48253 31.3701,-2.42478 60.3299,-20.89972 78.9341,-46.27378 18.6043,-25.37406 27.4517,-57.03283 28.693,-88.47198 0.2071,-5.24508 0.2091,-10.5416 -0.8283,-15.68723 -1.0374,-5.14563 -3.1791,-10.17231 -6.7988,-13.97379 z"
         id="path1"
         transform="rotate(-88.785228,1873.2367,170.79638)" />
      <g
         id="umbilical-cord"
         transform="matrix(0.8109161,-0.14677307,0.11607622,1.0253663,1003.5673,41.200199)">
        <path
           id="cord-red-outline"
           d="m 1067.904,660.60867 c -30.8822,-22.86023 -39.9805,-28.03321 -44.3429,-54.00817 -3.9178,-23.32735 3.9168,-51.33873 10.8133,-87.59903 1.9369,-54.98994 -10.5554,-126.42252 20.9945,-158.18722"
           fill="none"
           stroke="#000000"
           stroke-width="14"
           stroke-linecap="round"
           style="stroke-width:49.1732;stroke-dasharray:none" />
        <path
           id="cord-blue"
           d="m 1066.3844,661.60537 c -59.5833,-28.89704 -55.3329,-59.57537 -39.358,-141.61046 6.1206,-31.28897 -10.4369,-130.86069 20.3548,-158.64048"
           fill="none"
           stroke="#7ec8ff"
           stroke-width="8"
           stroke-linecap="round" />
        <path
           id="cord-blue-9"
           d="m 1071.8288,659.93665 c -52.6093,-37.33888 -49.9153,-50.78597 -32.379,-139.94545 -2.1365,-59.9262 -8.2808,-131.3345 22.5108,-159.11428"
           fill="none"
           stroke="#7ec8ff"
           stroke-width="8"
           stroke-linecap="round" />
        <path
           id="cord-red"
           d="m 1066.6166,659.13199 c -30.8401,-19.1856 -45.5264,-32.06518 -45.6126,-62.64284 0.043,-6.28282 3.1546,-17.92483 5.9197,-32.80506 5.0818,-27.34722 6.4137,-39.9739 6.7645,-68.98564 -6.3815,-64.08388 -1.278,-108.38222 19.6935,-134.77312"
           fill="none"
           stroke="#ffb6b6"
           stroke-width="8"
           stroke-linecap="round" />
        <text
           xml:space="preserve"
           style="font-size:374.616px;font-family:Sans;-inkscape-font-specification:'Sans, Normal';writing-mode:lr-tb;direction:ltr;fill:#f45c5c;fill-opacity:1;stroke:#0e0000;stroke-width:0;stroke-dasharray:none;stroke-opacity:1"
           x="-1010.0463"
           y="625.94891"
           id="text85"
           transform="matrix(1.1131335,0.15933625,-0.12601188,0.88032724,0,0)"
           onmouseover="const colors = [&quot;#e91e63&quot;,&quot;#3b82f6&quot;,&quot;#10b981&quot;,&quot;#f59e0b&quot;,&quot;#8b5cf6&quot;];&#10;this.style.fill = colors[Math.floor(Math.random() * colors.length)];"
           onmouseout="const colors = [&quot;#e91e63&quot;,&quot;#3b82f6&quot;,&quot;#10b981&quot;,&quot;#f59e0b&quot;,&quot;#8b5cf6&quot;];&#10;this.style.fill = colors[Math.floor(Math.random() * colors.length)];"><tspan
             id="tspan85"
             style="font-style:normal;font-variant:normal;font-weight:normal;font-stretch:normal;font-size:374.616px;font-family:'Hiragino Maru Gothic ProN';-inkscape-font-specification:'Hiragino Maru Gothic ProN, Normal';font-variant-ligatures:normal;font-variant-caps:normal;font-variant-numeric:normal;font-variant-east-asian:normal;fill:#010000;fill-opacity:1;stroke-width:0;stroke-dasharray:none"
             x="-1010.0463"
             y="625.94891">Cariaco La</tspan></text>
      </g>
    </g>
  </g>
</svg>
